<?xml version="1.0" standalone="no"?>
<!DOCTYPE svg PUBLIC "-//W3C//DTD SVG 20010904//EN"
 "http://www.w3.org/TR/2001/REC-SVG-20010904/DTD/svg10.dtd">
<svg version="1.0" xmlns="http://www.w3.org/2000/svg"
 width="300.000000pt" height="300.000000pt" viewBox="0 0 300.000000 300.000000"
 preserveAspectRatio="xMidYMid meet">
<metadata>
Created by potrace 1.11, written by Peter Selinger 2001-2013
</metadata>
<g transform="translate(0.000000,300.000000) scale(0.100000,-0.100000)"
fill="#000000" stroke="none">
<path d="M1128 2745 c-1 -1 -25 -5 -53 -8 -27 -3 -50 -6 -50 -6 0 -1 0 -554 0
-1230 l0 -1229 30 -8 c57 -13 308 -13 390 1 242 40 476 153 643 310 43 41 63
67 57 73 -5 5 -30 21 -55 35 l-45 26 -51 -48 c-135 -126 -356 -234 -544 -266
-61 -11 -154 -20 -185 -19 -16 1 -48 2 -71 3 l-41 1 -1 1119 -1 1119 46 4 c82
6 237 -10 338 -37 159 -40 345 -139 464 -244 l33 -31 44 43 44 42 -51 48
c-154 143 -399 258 -624 292 -78 12 -307 19 -317 10z"/>
<path d="M579 2552 c-175 -114 -313 -257 -406 -420 -51 -89 -117 -243 -127
-292 -2 -14 -7 -32 -10 -40 -7 -18 -13 -53 -26 -143 -9 -62 -7 -284 3 -347 38
-235 144 -466 290 -627 74 -82 76 -84 142 -140 55 -47 229 -163 245 -163 3 0
6 504 7 1120 0 616 -3 1120 -6 1120 -4 0 -54 -31 -112 -68z m-9 -1052 c0 -490
-4 -890 -8 -890 -18 0 -181 172 -231 244 -93 135 -171 324 -187 451 -3 22 -7
50 -10 63 -6 30 -6 219 1 257 3 17 10 59 16 95 37 209 165 443 321 588 28 26
58 55 67 65 8 9 19 17 23 17 5 0 8 -400 8 -890z"/>
<path d="M2741 2242 c-19 -3 -213 -117 -371 -217 -39 -25 -550 -339 -592 -364
-111 -66 -287 -177 -287 -181 0 -3 283 -177 629 -388 l630 -383 119 3 120 3
-320 195 c-177 107 -337 205 -357 216 -21 12 -152 91 -292 176 -212 129 -256
159 -258 180 -2 17 3 27 17 34 35 16 1179 719 1176 722 -4 5 -185 8 -214 4z"/>
</g>
</svg>
